<svg width="24" height="24" viewBox="0 0 24 24" fill="none" xmlns="http://www.w3.org/2000/svg">
<path d="M4 2.95203C4 2.42624 4.42624 2 4.95203 2H19.0479C19.5737 2 20 2.42624 20 2.95203L20 20.5058C20 21.2022 19.2769 21.6629 18.6457 21.3687L12.4022 18.4583C12.1473 18.3395 11.8528 18.3395 11.5978 18.4583L5.35428 21.3687C4.72314 21.6629 4.00002 21.2022 4.00002 20.5058L4 2.95203Z" fill="#00C6FF"/>
<path d="M16.5029 9.27358L15.1863 7.13893C14.7787 6.47796 14.0515 6.07458 13.2676 6.07458H10.7324C9.94853 6.07458 9.22131 6.47796 8.81365 7.13893L7.49707 9.27358C7.06022 9.98189 7.06022 10.8716 7.49707 11.58L8.81365 13.7147C9.22131 14.3756 9.94853 14.779 10.7324 14.779H13.2676C14.0515 14.779 14.7787 14.3756 15.1863 13.7147L16.5029 11.58C16.9398 10.8717 16.9398 9.98195 16.5029 9.27358Z" fill="white"/>
<path d="M14.6171 12.393L13.1595 11.0906L13.1874 11.0505C13.3661 10.794 13.4913 10.5024 13.5347 10.1941C13.7137 8.92281 12.6551 7.83911 11.3785 7.94968C10.41 8.03353 9.63386 8.81463 9.56604 9.77199C9.48449 10.9223 10.4096 11.884 11.5578 11.884C11.8623 11.884 12.155 11.8176 12.4277 11.6868L12.4824 11.6605L14.0232 13.0374C14.1102 13.1157 14.2232 13.1551 14.3416 13.1504C14.4591 13.1448 14.5676 13.0943 14.6469 13.0082C14.8103 12.8304 14.797 12.5545 14.6171 12.393ZM11.6879 11.1609C10.8853 11.2401 10.2133 10.5769 10.2934 9.78465C10.3528 9.19816 10.8332 8.72372 11.4274 8.66497C12.2301 8.5856 12.9022 9.24896 12.8219 10.0414C12.7625 10.6279 12.282 11.1023 11.6879 11.1609Z" fill="#00C6FF"/>
<path d="M15.823 6.58928C15.823 5.86369 15.0864 5.12765 14.3613 5.12765C15.0869 5.12765 15.823 4.39112 15.823 3.66602C15.823 4.39161 16.5595 5.12765 17.2846 5.12765C16.559 5.12765 15.823 5.86417 15.823 6.58928Z" fill="white"/>
<path d="M17.2847 7.94192C17.2847 7.53853 16.8753 7.12935 16.4722 7.12935C16.8756 7.12935 17.2847 6.71989 17.2847 6.31677C17.2847 6.72016 17.6942 7.12935 18.0973 7.12935C17.6939 7.12935 17.2847 7.5388 17.2847 7.94192Z" fill="white"/>
</svg>
